<?xml version="1.0" encoding="UTF-8" standalone="no"?>
<!DOCTYPE svg PUBLIC "-//W3C//DTD SVG 1.1//EN" "http://www.w3.org/Graphics/SVG/1.1/DTD/svg11.dtd">
<svg width="100%" height="100%" viewBox="0 0 1200 675" version="1.1" xmlns="http://www.w3.org/2000/svg" xmlns:xlink="http://www.w3.org/1999/xlink" xml:space="preserve" xmlns:serif="http://www.serif.com/" style="fill-rule:evenodd;clip-rule:evenodd;stroke-linecap:round;stroke-linejoin:round;stroke-miterlimit:1;">
    <g transform="matrix(0.922917,0,0,1.16459,1564.34,-142.686)">
        <rect x="-1745.05" y="23.888" width="1350.51" height="677.266"/>
    </g>
    <g transform="matrix(1.68513,0,0,2.5644,-66.3549,-137.997)">
        <g transform="matrix(1.81558,0,0,1.73038,-1048.04,-182.101)">
            <path d="M627.808,209.77C627.104,202.144 626.557,196.934 626.166,194.138C625.775,191.341 625.164,188.321 624.333,185.075C623.502,181.829 622.602,178.554 621.634,175.25C620.667,171.945 619.625,168.792 618.511,165.791C618.133,164.773 617.759,163.767 617.39,162.773C616.671,160.835 615.969,158.943 615.285,157.095L626.166,156.86C638.582,157.036 645.821,157.486 647.884,158.209C649.947,158.933 651.492,160.028 652.518,161.494C653.545,162.961 654.327,164.5 654.864,166.113C655.402,167.727 655.793,169.633 656.038,171.833C656.282,174.032 655.622,175.944 654.058,177.567C655.857,178.466 657.26,179.429 658.267,180.455C659.274,181.482 660.163,182.768 660.936,184.312C661.708,185.857 662.441,187.734 663.135,189.943C663.829,192.153 664.44,194.656 664.968,197.452C665.496,200.248 665.628,202.335 665.364,203.714C665.1,205.092 664.411,206.446 663.297,207.776C662.182,209.105 660.926,209.843 659.528,209.99C658.13,210.137 654.204,210.21 647.752,210.21L628.365,210.21L627.808,209.77ZM634.173,174.399C638.376,174.536 640.889,174.394 641.71,173.974C642.531,173.553 643.23,172.957 643.807,172.185C644.384,171.412 644.575,170.547 644.379,169.589C644.184,168.631 643.763,167.859 643.118,167.272C642.473,166.685 641.544,166.299 640.332,166.113C639.119,165.928 637.257,165.806 634.745,165.747C632.232,165.688 631,165.781 631.049,166.026C631.098,166.27 631.474,167.189 632.178,168.782C632.882,170.376 633.547,172.248 634.173,174.399ZM640.068,200.267C643.705,200.267 646.55,200.199 648.603,200.062C650.656,199.925 651.746,199.099 651.873,197.584C652,196.068 651.809,194.441 651.301,192.7C650.793,190.96 650.172,189.631 649.438,188.712C648.705,187.793 647.459,187.231 645.699,187.025C643.939,186.82 642.111,186.751 640.214,186.82C638.318,186.888 637.423,187.025 637.531,187.231C637.638,187.436 637.927,188.702 638.396,191.029C638.865,193.355 639.423,196.435 640.068,200.267Z" style="fill:url(#_Linear1);fill-rule:nonzero;stroke:rgb(0,168,248);stroke-width:1.75px;"/>
        </g>
        <g transform="matrix(1.81558,0,0,1.73038,-1048.04,-182.101)">
            <path d="M698.228,157.095C699.714,159.304 701.117,161.597 702.436,163.972C703.756,166.348 705.125,169.315 706.542,172.874C707.96,176.432 709.221,180.216 710.326,184.224C711.431,188.233 712.335,192.055 713.039,195.692C713.743,199.329 714.388,204.109 714.975,210.034L701.688,210.034L700.339,200.238L699.254,195.545L685.939,195.34L687.083,202.467L687.405,210.034L673.738,210.034C673.386,205.146 672.926,201.03 672.359,197.686C671.792,194.343 671.152,191.043 670.438,187.788C669.725,184.532 668.801,181.198 667.667,177.787C666.533,174.375 665.433,170.958 664.367,167.536C663.301,164.114 663.468,161.44 664.866,159.514C666.264,157.588 667.73,156.586 669.265,156.508C670.8,156.43 673.845,156.396 678.401,156.406C682.957,156.415 689.566,156.645 698.228,157.095ZM696.439,184.459C695.344,180.001 694.439,176.926 693.726,175.235C693.012,173.544 691.736,170.616 689.898,166.451C683.172,166.001 679.589,166.221 679.149,167.111C678.709,168 678.66,169.33 679.002,171.099C679.344,172.869 680.738,177.312 683.182,184.43L696.439,184.459Z" style="fill:url(#_Linear2);fill-rule:nonzero;stroke:rgb(0,168,248);stroke-width:1.75px;"/>
        </g>
        <g transform="matrix(1.81558,0,0,1.73038,-1048.04,-182.101)">
            <path d="M745.917,157.359L749.026,165.19L749.612,167.037L749.964,168.387C743.336,168.23 738.286,168.152 734.816,168.152C731.345,168.152 729.405,168.303 728.994,168.606C728.583,168.91 728.334,169.428 728.246,170.161C728.158,170.894 728.344,172.185 728.803,174.032C729.263,175.88 729.893,178.256 730.695,181.159C731.497,184.063 732.132,186.502 732.601,188.477C733.071,190.452 733.457,191.904 733.76,192.832C734.063,193.761 734.337,194.426 734.581,194.827C734.826,195.228 735.446,195.844 736.444,196.675C737.441,197.506 738.858,197.921 740.696,197.921L758.734,197.921L759.614,201.968L760.523,210.122C741.791,210.122 732.328,210.122 732.132,210.122L730.152,210.122C729.028,210.122 727.532,209.521 725.665,208.318C723.798,207.116 722.59,205.85 722.043,204.52C721.495,203.19 720.943,200.996 720.386,197.936C719.829,194.876 719.022,191.224 717.966,186.981C716.91,182.738 715.938,179.16 715.048,176.247C714.158,173.333 713.41,170.948 712.804,169.09C712.198,167.233 711.773,165.933 711.528,165.19C711.284,164.447 711.044,163.591 710.81,162.623C710.575,161.655 711.04,160.463 712.203,159.045C713.366,157.628 715.077,156.88 717.336,156.801C719.594,156.723 723.118,156.723 727.909,156.801C732.699,156.88 738.702,157.065 745.917,157.359Z" style="fill:url(#_Linear3);fill-rule:nonzero;stroke:rgb(0,168,248);stroke-width:1.75px;"/>
        </g>
        <g transform="matrix(1.81558,0,0,1.73038,-1048.64,-182.101)">
            <path d="M768.06,209.887C767.454,203.357 766.838,198.048 766.213,193.962C765.587,189.875 764.604,185.754 763.265,181.599C761.926,177.444 760.489,173.138 758.954,168.68C757.419,164.222 755.84,160.292 754.217,156.889L769.703,156.889C772.264,162.384 774.107,166.539 775.231,169.354C776.356,172.17 777.172,174.321 777.68,175.807C778.189,177.293 778.443,178.036 778.443,178.036L785.189,156.889L800.44,156.889L791.905,183.374C798.26,188.125 802.405,191.689 804.341,194.064C806.276,196.44 808.095,198.855 809.796,201.309C811.497,203.762 813.003,206.7 814.313,210.122L798.328,210.122C796.119,206.114 793.895,202.922 791.656,200.546C789.417,198.17 787.599,196.352 786.201,195.091C784.802,193.83 784.182,193.267 784.338,193.404L780.76,190.735C781.698,195.037 782.314,198.341 782.608,200.649C782.901,202.956 783.214,206.114 783.546,210.122L768.295,210.122L768.06,209.887Z" style="fill:url(#_Linear4);fill-rule:nonzero;stroke:rgb(0,168,248);stroke-width:1.75px;"/>
        </g>
    </g>
    <g transform="matrix(0.845336,0,0,1.38933,-449.238,276.445)">
        <g transform="matrix(1.5704,0,0,1.38584,-344.142,-246.283)">
            <path d="M667.432,219.361C667.06,224.327 666.787,227.504 666.611,228.893C666.435,230.281 666.347,230.975 666.347,230.975L651.77,230.975C651.34,236.372 650.797,240.786 650.142,244.217C649.487,247.649 648.73,251.007 647.869,254.292C647.009,257.577 645.939,261.042 644.658,264.689C643.377,268.336 642.443,270.804 641.857,272.095L627.222,272.095L632.12,257.254C635.561,245.6 637.174,236.831 636.959,230.946L622.382,230.946L623.086,223.085L623.116,219.361L667.432,219.361Z" style="fill:url(#_Linear5);fill-rule:nonzero;stroke:rgb(0,168,248);stroke-width:3.02px;stroke-linecap:butt;stroke-miterlimit:2;"/>
        </g>
        <g transform="matrix(1.5704,0,0,1.38584,-344.142,-246.283)">
            <path d="M682.771,257.225C682.712,257.401 682.644,257.801 682.566,258.427C682.488,259.053 682.551,259.635 682.756,260.172C682.962,260.71 683.485,261.047 684.326,261.184C685.166,261.321 686.916,261.345 689.575,261.257C692.235,261.169 694.188,261.325 694.784,261.276C695.38,261.227 699.869,261.632 700.446,261.123C701.023,260.615 701.382,260.866 701.773,260.211C702.164,259.556 702.849,257.535 703.26,256.049C703.67,254.563 703.765,252.771 704.254,250.787C704.742,248.802 705.271,246.042 705.818,243.246C706.366,240.45 706.81,237.033 707.181,234.462C707.553,231.891 707.668,230.414 707.287,229.652C706.905,228.889 702.031,228.663 700.955,228.614C699.88,228.565 698.237,228.541 696.028,228.541C693.818,228.541 692.318,228.565 691.526,228.614C690.734,228.663 690.099,228.922 689.619,229.391C689.14,229.86 688.818,230.467 688.652,231.21C688.485,231.953 688.168,233.771 687.698,236.665C687.229,239.559 686.804,241.905 686.423,243.704C686.041,245.503 685.66,247.121 685.279,248.558C684.897,249.995 684.062,252.884 682.771,257.225ZM665.79,265.847C668.331,258.73 669.949,253.984 670.643,251.608C671.338,249.232 671.993,246.559 672.609,243.587C673.224,240.615 673.806,236.753 674.354,232.002C674.901,227.25 675.322,224.254 675.615,223.012C675.908,221.771 676.685,220.768 677.946,220.006C679.208,219.243 680.967,218.823 683.226,218.745C685.484,218.667 689.786,218.627 696.131,218.627C702.475,218.627 707.193,218.667 710.282,218.745C713.371,218.823 720.683,218.734 721.974,219.995C723.264,221.256 723.282,225.054 722.96,229.287C722.637,233.52 721.844,237.788 721.003,242.383C720.162,246.978 719.725,251.497 718.845,254.772C717.966,258.047 717.971,260.177 717.17,262.621C716.368,265.065 716.043,266.129 715.095,267.215C714.147,268.3 712.925,270.785 711.429,271.636C709.933,272.486 702.099,272.095 700.457,272.095L671.523,272.095C668.933,272.095 667.261,271.65 666.508,270.76C665.755,269.87 665.408,268.903 665.467,267.856C665.526,266.81 665.633,266.141 665.79,265.847Z" style="fill:url(#_Linear6);fill-rule:nonzero;stroke:rgb(0,168,248);stroke-width:3.02px;stroke-linecap:butt;stroke-miterlimit:2;"/>
        </g>
    </g>
    <g transform="matrix(0.718186,0,0,1.09292,-192.554,278.788)">
        <g transform="matrix(1.934,0,0,1.81399,-1109.02,-212.079)">
            <path d="M790.083,219.531C789.711,224.497 788.709,226.824 788.776,228.552C788.83,229.946 788.027,231.315 788.027,231.315L772.722,231.145C772.292,236.542 770.535,241.126 769.88,244.557C769.225,247.989 767.982,251.007 767.122,254.292C766.262,257.577 765.191,261.042 763.91,264.689C762.63,268.336 761.696,270.804 761.109,272.095L746.474,272.095L751.372,257.254C754.813,245.6 758.854,237.001 758.639,231.116L744.548,230.946L746.951,223.085L748.435,219.375L790.083,219.531Z" style="fill:url(#_Linear7);fill-rule:nonzero;stroke:rgb(0,168,248);stroke-width:2.92px;stroke-linecap:butt;stroke-miterlimit:2;"/>
        </g>
        <g transform="matrix(1.934,0,0,1.81399,-1113.2,-212.079)">
            <path d="M837.981,271.86C840.445,266.014 842.376,261.111 843.774,257.151C845.172,253.192 846.311,249.452 847.191,245.933C848.07,242.413 848.857,238.825 849.552,235.169C850.246,231.513 851.14,226.233 852.235,219.331L866.343,219.331L890.539,219.361C890.305,224.073 889.865,227.739 889.219,230.359L864.553,230.154C864.065,233.654 863.576,236.587 863.087,238.953L887.753,239.158C887.108,242.247 886.11,245.835 884.761,249.922L859.978,249.922C858.081,255.768 856.781,259.424 856.077,260.891L881.359,261.096C879.854,264.752 878.211,268.419 876.432,272.095L837.835,272.095L837.981,271.86Z" style="fill:url(#_Linear8);fill-rule:nonzero;stroke:rgb(0,168,248);stroke-width:2.92px;stroke-linecap:butt;stroke-miterlimit:2;"/>
        </g>
        <g transform="matrix(1.934,0,0,1.81399,-1110.42,-212.079)">
            <path d="M817.187,259.571C816.268,262.308 816.268,262.303 817.187,259.556C818.106,256.809 818.106,256.814 817.187,259.571ZM784.25,272.124C786.87,265.75 788.698,261.003 789.735,257.885C790.771,254.766 791.714,251.54 792.565,248.206C793.416,244.872 794.242,241.499 794.721,238.087C795.2,234.675 796.458,231.966 797.052,229.224C797.626,226.578 798.542,222.939 799.011,218.931L807.046,219.086L813.534,219.229C813.045,224.097 811.606,227.243 811.351,229.619C811.097,231.995 810.324,235.335 809.679,239.187L821.997,239.422C822.779,234.514 824.443,230.347 824.805,227.092C825.167,223.836 826.411,221.389 826.352,219.297L841.326,219.254L839.837,226.957C839.251,232.881 837.214,237.73 836.559,241.504C835.904,245.278 835.146,248.612 834.315,251.887C833.484,255.162 832.546,258.51 831.47,261.551C830.395,264.591 828.86,268.194 826.865,272.358L812.611,272.358C814.743,266.571 816.268,262.303 817.187,259.556C818.106,256.809 818.937,253.803 819.68,250.538L807.332,250.332C806.452,253.285 805.524,256.061 804.546,258.662C803.568,261.262 801.701,265.75 798.944,272.124L784.25,272.124ZM834.315,251.887C835.156,248.465 835.161,248.46 834.33,251.872C833.499,255.284 833.494,255.289 834.315,251.887Z" style="fill:url(#_Linear9);fill-rule:nonzero;stroke:rgb(0,168,248);stroke-width:2.92px;stroke-linecap:butt;stroke-miterlimit:2;"/>
        </g>
    </g>
    <g transform="matrix(1.68513,0,0,2.5644,-746.06,-157.186)">
        <g transform="matrix(1.81558,0,0,1.73038,-1048.04,-180.542)">
            <path d="M946.75,219.097C951.658,219.097 954.943,219.722 956.605,220.974C958.267,222.225 959.024,223.96 958.878,226.18C958.731,228.399 958.423,230.828 957.954,233.468L944.433,233.468C945.469,229.968 944.55,228.218 941.676,228.218L934.065,228.218C931.866,228.218 930.629,228.775 930.355,229.89C930.081,231.004 929.739,232.451 929.329,234.231C928.918,236.01 928.869,237.266 929.182,237.999C929.495,238.733 930.15,239.324 931.147,239.774C932.144,240.223 934.393,240.346 937.893,240.14C941.393,239.935 944.409,240.248 946.941,241.079C949.473,241.91 951.311,243.665 952.455,246.344C953.599,249.022 953.467,252.747 952.059,257.518C950.651,262.289 949.184,265.608 947.659,267.475C946.134,269.342 942.742,270.902 937.482,272.153L920.53,272.153C909.424,272.564 905.367,268.614 908.358,260.304L910.529,255.348L923.873,255.348L922.612,259.102C922.69,260.47 922.896,261.336 923.228,261.697C923.561,262.059 926.777,262.171 932.877,262.035C936.182,261.644 938.235,259.85 939.037,256.653C939.838,253.456 939.472,251.432 937.937,250.582C936.402,249.731 933.855,249.404 930.296,249.599C926.738,249.795 923.438,249.716 920.398,249.364C917.357,249.012 915.295,248.167 914.209,246.827C913.124,245.488 913.017,243.01 913.887,239.392C914.757,235.775 915.446,232.779 915.955,230.403C916.463,228.027 916.908,226.175 917.289,224.845C917.67,223.516 918.501,222.333 919.782,221.296C921.063,220.26 922.744,219.6 924.827,219.317C926.909,219.033 930.697,218.891 936.192,218.891C941.686,218.891 945.205,218.96 946.75,219.097Z" style="fill:url(#_Linear10);fill-rule:nonzero;stroke:rgb(0,168,248);stroke-width:1.75px;stroke-linecap:butt;stroke-miterlimit:2;"/>
        </g>
        <g transform="matrix(1.81558,0,0,1.73038,-1054.34,-180.542)">
            <path d="M958.863,271.86C961.327,266.014 963.258,261.111 964.656,257.151C966.054,253.192 967.193,249.452 968.072,245.933C968.952,242.413 969.739,238.825 970.433,235.169C971.128,231.513 972.022,226.233 973.117,219.331L987.224,219.331L1011.42,219.361C1011.19,224.073 1010.75,227.739 1010.1,230.359L985.435,230.154C984.947,233.654 984.458,236.587 983.969,238.953L1008.63,239.158C1007.99,242.247 1006.99,245.835 1005.64,249.922L980.86,249.922C978.963,255.768 977.663,259.424 976.959,260.891L1002.24,261.096C1000.74,264.752 999.093,268.419 997.314,272.095L958.716,272.095L958.863,271.86Z" style="fill:url(#_Linear11);fill-rule:nonzero;stroke:rgb(0,168,248);stroke-width:1.75px;stroke-linecap:butt;stroke-miterlimit:2;"/>
        </g>
        <g transform="matrix(1.81558,0,0,1.73038,-1060.64,-180.542)">
            <path d="M1010.54,272.388C1013.83,265.016 1016.23,259.258 1017.76,255.113C1019.28,250.968 1020.6,246.867 1021.7,242.809C1022.81,238.752 1023.73,234.578 1024.46,230.286C1025.19,225.994 1025.66,222.118 1025.88,218.657L1045.82,218.657C1056.15,218.93 1062.01,219.825 1063.42,221.34C1064.83,222.856 1065.39,224.855 1065.09,227.338C1064.8,229.821 1064.35,232.569 1063.73,235.58C1063.11,238.591 1062.61,240.639 1062.22,241.724C1061.83,242.809 1061.05,244.193 1059.89,245.874C1058.72,247.556 1055.72,249.374 1050.87,251.329C1053.7,257.215 1055.65,264.303 1056.7,272.593L1041.16,272.593C1040.56,268.389 1039.74,265.275 1038.71,263.252C1037.68,261.228 1035.76,258.73 1032.95,255.758C1032.25,258.046 1031.65,259.771 1031.16,260.935C1030.67,262.098 1029.06,265.916 1026.32,272.388L1010.54,272.388ZM1035.65,243.44C1039.91,243.44 1042.74,243.274 1044.12,242.941C1045.51,242.609 1046.55,241.973 1047.25,241.035C1047.94,240.096 1048.41,239.251 1048.65,238.498C1048.9,237.745 1049.34,236.161 1049.97,233.747C1050.61,231.332 1050.27,229.89 1048.96,229.421C1047.65,228.951 1044.42,228.785 1039.25,228.922C1038.71,232.422 1038.04,235.55 1037.25,238.307C1036.45,241.064 1035.92,242.775 1035.65,243.44Z" style="fill:url(#_Linear12);fill-rule:nonzero;stroke:rgb(0,168,248);stroke-width:1.75px;stroke-linecap:butt;stroke-miterlimit:2;"/>
        </g>
        <g transform="matrix(1.81558,0,0,1.73038,-1060.01,-180.542)">
            <path d="M1072.6,219.067L1086.62,219.097C1086.86,223.535 1086.85,228.687 1086.59,234.553C1086.34,240.419 1085.13,248.621 1082.98,259.16C1087.97,251.769 1091.22,246.285 1092.74,242.707C1094.25,239.129 1095.59,235.555 1096.74,231.987C1097.89,228.418 1099.14,224.112 1100.49,219.067L1114.92,219.067C1113.87,223.076 1112.71,226.976 1111.46,230.77C1110.21,234.563 1108.44,239.021 1106.14,244.144C1103.84,249.267 1100.72,254.497 1096.77,259.835C1092.82,265.173 1089.25,269.259 1086.06,272.095L1067.64,272.095C1069.09,264.664 1070,259.243 1070.37,255.831C1070.74,252.42 1071.2,248.783 1071.74,244.921C1072.27,241.059 1072.57,236.9 1072.63,232.441C1072.69,227.983 1072.72,224.679 1072.72,222.528C1072.72,220.377 1072.69,219.37 1072.63,219.507L1072.6,219.067Z" style="fill:url(#_Linear13);fill-rule:nonzero;stroke:rgb(0,168,248);stroke-width:1.75px;stroke-linecap:butt;stroke-miterlimit:2;"/>
        </g>
        <g transform="matrix(1.81558,0,0,1.73038,-1066.94,-180.542)">
            <path d="M1110.64,271.86C1113.11,266.014 1115.04,261.111 1116.43,257.151C1117.83,253.192 1118.97,249.452 1119.85,245.933C1120.73,242.413 1121.52,238.825 1122.21,235.169C1122.91,231.513 1123.8,226.233 1124.9,219.331L1139,219.331L1163.2,219.361C1162.96,224.073 1162.53,227.739 1161.88,230.359L1137.21,230.154C1136.73,233.654 1136.24,236.587 1135.75,238.953L1160.41,239.158C1159.77,242.247 1158.77,245.835 1157.42,249.922L1132.64,249.922C1130.74,255.768 1129.44,259.424 1128.74,260.891L1154.02,261.096C1152.51,264.752 1150.87,268.419 1149.09,272.095L1110.5,272.095L1110.64,271.86Z" style="fill:url(#_Linear14);fill-rule:nonzero;stroke:rgb(0,168,248);stroke-width:1.75px;stroke-linecap:butt;stroke-miterlimit:2;"/>
        </g>
        <g transform="matrix(1.81558,0,0,1.73038,-1077.57,-180.542)">
            <path d="M1162.32,272.388C1165.61,265.016 1168.01,259.258 1169.54,255.113C1171.06,250.968 1172.38,246.867 1173.48,242.809C1174.58,238.752 1175.5,234.578 1176.24,230.286C1176.97,225.994 1177.44,222.118 1177.66,218.657L1197.6,218.657C1207.93,218.93 1213.79,219.825 1215.2,221.34C1216.61,222.856 1217.16,224.855 1216.87,227.338C1216.58,229.821 1216.12,232.569 1215.51,235.58C1214.89,238.591 1214.39,240.639 1214,241.724C1213.61,242.809 1212.83,244.193 1211.67,245.874C1210.5,247.556 1207.5,249.374 1202.65,251.329C1205.48,257.215 1207.43,264.303 1208.48,272.593L1192.94,272.593C1192.33,268.389 1191.52,265.275 1190.49,263.252C1189.46,261.228 1187.54,258.73 1184.73,255.758C1184.02,258.046 1183.43,259.771 1182.94,260.935C1182.45,262.098 1180.84,265.916 1178.1,272.388L1162.32,272.388ZM1187.43,243.44C1191.69,243.44 1194.51,243.274 1195.9,242.941C1197.29,242.609 1198.33,241.973 1199.03,241.035C1199.72,240.096 1200.19,239.251 1200.43,238.498C1200.68,237.745 1201.12,236.161 1201.75,233.747C1202.39,231.332 1202.05,229.89 1200.74,229.421C1199.43,228.951 1196.19,228.785 1191.03,228.922C1190.49,232.422 1189.82,235.55 1189.02,238.307C1188.23,241.064 1187.7,242.775 1187.43,243.44Z" style="fill:url(#_Linear15);fill-rule:nonzero;stroke:rgb(0,168,248);stroke-width:1.75px;stroke-linecap:butt;stroke-miterlimit:2;"/>
        </g>
    </g>
    <defs>
        <linearGradient id="_Linear1" x1="0" y1="0" x2="1" y2="0" gradientUnits="userSpaceOnUse" gradientTransform="matrix(-0.840792,-53.3333,77.3529,-0.579709,819.499,209.919)"><stop offset="0" style="stop-color:rgb(255,245,48);stop-opacity:1"/><stop offset="1" style="stop-color:rgb(255,48,67);stop-opacity:1"/></linearGradient>
        <linearGradient id="_Linear2" x1="0" y1="0" x2="1" y2="0" gradientUnits="userSpaceOnUse" gradientTransform="matrix(-0.840792,-53.3333,77.3529,-0.579709,819.499,209.919)"><stop offset="0" style="stop-color:rgb(255,245,48);stop-opacity:1"/><stop offset="1" style="stop-color:rgb(255,48,67);stop-opacity:1"/></linearGradient>
        <linearGradient id="_Linear3" x1="0" y1="0" x2="1" y2="0" gradientUnits="userSpaceOnUse" gradientTransform="matrix(-0.840792,-53.3333,77.3529,-0.579709,819.499,209.919)"><stop offset="0" style="stop-color:rgb(255,245,48);stop-opacity:1"/><stop offset="1" style="stop-color:rgb(255,48,67);stop-opacity:1"/></linearGradient>
        <linearGradient id="_Linear4" x1="0" y1="0" x2="1" y2="0" gradientUnits="userSpaceOnUse" gradientTransform="matrix(-0.840792,-53.3333,77.3529,-0.579709,819.499,209.919)"><stop offset="0" style="stop-color:rgb(255,245,48);stop-opacity:1"/><stop offset="1" style="stop-color:rgb(255,48,67);stop-opacity:1"/></linearGradient>
        <linearGradient id="_Linear5" x1="0" y1="0" x2="1" y2="0" gradientUnits="userSpaceOnUse" gradientTransform="matrix(0.891675,51.0277,-74.009,0.614792,603.424,219.118)"><stop offset="0" style="stop-color:rgb(255,245,48);stop-opacity:1"/><stop offset="1" style="stop-color:rgb(255,124,0);stop-opacity:1"/></linearGradient>
        <linearGradient id="_Linear6" x1="0" y1="0" x2="1" y2="0" gradientUnits="userSpaceOnUse" gradientTransform="matrix(0.891675,51.0277,-74.009,0.614792,603.424,219.118)"><stop offset="0" style="stop-color:rgb(255,245,48);stop-opacity:1"/><stop offset="1" style="stop-color:rgb(255,124,0);stop-opacity:1"/></linearGradient>
        <linearGradient id="_Linear7" x1="0" y1="0" x2="1" y2="0" gradientUnits="userSpaceOnUse" gradientTransform="matrix(4.71173e-15,53.91,-76.9484,3.30104e-15,733.329,216.77)"><stop offset="0" style="stop-color:rgb(255,124,0);stop-opacity:1"/><stop offset="1" style="stop-color:rgb(255,48,67);stop-opacity:1"/></linearGradient>
        <linearGradient id="_Linear8" x1="0" y1="0" x2="1" y2="0" gradientUnits="userSpaceOnUse" gradientTransform="matrix(4.71173e-15,53.91,-76.9484,3.30104e-15,733.329,216.77)"><stop offset="0" style="stop-color:rgb(255,124,0);stop-opacity:1"/><stop offset="1" style="stop-color:rgb(255,48,67);stop-opacity:1"/></linearGradient>
        <linearGradient id="_Linear9" x1="0" y1="0" x2="1" y2="0" gradientUnits="userSpaceOnUse" gradientTransform="matrix(4.71173e-15,53.91,-76.9484,3.30104e-15,733.329,216.77)"><stop offset="0" style="stop-color:rgb(255,124,0);stop-opacity:1"/><stop offset="1" style="stop-color:rgb(255,48,67);stop-opacity:1"/></linearGradient>
        <linearGradient id="_Linear10" x1="0" y1="0" x2="1" y2="0" gradientUnits="userSpaceOnUse" gradientTransform="matrix(-1.21192,55.163,-80.0067,-0.835597,1073.21,218.375)"><stop offset="0" style="stop-color:rgb(255,245,48);stop-opacity:1"/><stop offset="1" style="stop-color:rgb(239,2,24);stop-opacity:1"/></linearGradient>
        <linearGradient id="_Linear11" x1="0" y1="0" x2="1" y2="0" gradientUnits="userSpaceOnUse" gradientTransform="matrix(-1.21192,55.163,-80.0067,-0.835597,1076.68,218.375)"><stop offset="0" style="stop-color:rgb(255,245,48);stop-opacity:1"/><stop offset="1" style="stop-color:rgb(239,2,24);stop-opacity:1"/></linearGradient>
        <linearGradient id="_Linear12" x1="0" y1="0" x2="1" y2="0" gradientUnits="userSpaceOnUse" gradientTransform="matrix(-1.21192,55.163,-80.0067,-0.835597,1080.15,218.375)"><stop offset="0" style="stop-color:rgb(255,245,48);stop-opacity:1"/><stop offset="1" style="stop-color:rgb(239,2,24);stop-opacity:1"/></linearGradient>
        <linearGradient id="_Linear13" x1="0" y1="0" x2="1" y2="0" gradientUnits="userSpaceOnUse" gradientTransform="matrix(-1.21192,55.163,-80.0067,-0.835597,1079.8,218.375)"><stop offset="0" style="stop-color:rgb(255,245,48);stop-opacity:1"/><stop offset="1" style="stop-color:rgb(239,2,24);stop-opacity:1"/></linearGradient>
        <linearGradient id="_Linear14" x1="0" y1="0" x2="1" y2="0" gradientUnits="userSpaceOnUse" gradientTransform="matrix(-1.21192,55.163,-80.0067,-0.835597,1083.62,218.375)"><stop offset="0" style="stop-color:rgb(255,245,48);stop-opacity:1"/><stop offset="1" style="stop-color:rgb(239,2,24);stop-opacity:1"/></linearGradient>
        <linearGradient id="_Linear15" x1="0" y1="0" x2="1" y2="0" gradientUnits="userSpaceOnUse" gradientTransform="matrix(-1.21192,55.163,-80.0067,-0.835597,1088.82,218.375)"><stop offset="0" style="stop-color:rgb(255,245,48);stop-opacity:1"/><stop offset="1" style="stop-color:rgb(239,2,24);stop-opacity:1"/></linearGradient>
    </defs>
</svg>
