<?xml version="1.0" encoding="UTF-8" standalone="no"?>
<!DOCTYPE svg PUBLIC "-//W3C//DTD SVG 1.1//EN" "http://www.w3.org/Graphics/SVG/1.1/DTD/svg11.dtd">
<svg width="100%" height="100%" viewBox="0 0 9000 3000" version="1.1" xmlns="http://www.w3.org/2000/svg" xmlns:xlink="http://www.w3.org/1999/xlink" xml:space="preserve" xmlns:serif="http://www.serif.com/" style="fill-rule:evenodd;clip-rule:evenodd;stroke-linejoin:round;stroke-miterlimit:2;">
    <g transform="matrix(0.997637,0,0,0.997637,138.058,1442.88)">
        <g transform="matrix(1,0,0,1,38.09,0)">
            <path d="M7598.27,-362.792C7592.06,-388.488 7582.24,-411.933 7568.82,-433.128C7543.82,-472.617 7509.44,-503.156 7465.7,-524.747C7421.95,-546.338 7372.23,-557.133 7316.55,-557.133C7259.16,-557.133 7208.88,-545.344 7165.7,-521.764C7122.51,-498.185 7089.13,-464.804 7065.55,-421.622C7041.98,-378.441 7030.19,-327.02 7030.19,-267.361L6729.33,-267.361C6729.33,-378.156 6754.62,-474.463 6805.19,-556.281C6855.75,-638.099 6925.5,-701.451 7014.42,-746.338C7103.34,-791.224 7205.47,-813.667 7320.81,-813.667C7437.86,-813.667 7540.69,-791.792 7629.33,-748.042C7717.97,-704.292 7786.86,-644.349 7836.01,-568.213C7846.41,-552.091 7855.72,-535.486 7863.92,-518.397C7796.63,-478.279 7705.31,-424.418 7598.27,-362.792Z" style="fill:rgb(0,224,135);"/>
        </g>
        <g transform="matrix(1.00237,0,0,1.00237,287.622,-1346.06)">
            <path d="M7596.4,825.706C7626.86,889.174 7642.09,959.334 7642.09,1036.19C7642.09,1101.37 7629.62,1165.42 7604.68,1228.34C7579.74,1291.26 7535.95,1360.98 7473.32,1437.51C7410.68,1514.03 7322.97,1606.71 7210.16,1715.54L6910.02,2020.78L6910.02,2032.69L7668.45,2032.69L7668.45,2296.27L6474.69,2296.27L6474.69,2068.4L7079.22,1475.77C7137.04,1417.38 7185.22,1365.52 7223.77,1320.17C7262.31,1274.82 7291.22,1230.89 7310.49,1188.38C7329.77,1145.87 7339.4,1100.52 7339.4,1052.34C7339.4,1026.87 7336.73,1003.07 7331.37,980.943C7438.15,919.462 7529.27,865.729 7596.4,825.706Z" style="fill:rgb(2,202,116);"/>
        </g>
    </g>
    <g transform="matrix(0.997637,0,0,0.997637,138.058,1442.88)">
        <g transform="matrix(1.00237,0,0,1.00237,-130.366,-1446.3)">
            <path d="M5469.15,1766.18L6172.48,654.94L6267.7,654.94L6267.7,1012.05L6254.1,1012.05L5756.7,1800.24L5756.7,1813.84L6229.5,1813.84C6208.94,1819.38 6189.18,1824.19 6170.32,1828.21C5944.97,1876.14 5704.79,1830.57 5469.15,1766.18ZM6267.7,654.94L6381.64,654.94L6381.64,1012.05L6267.7,1012.05L6267.7,654.94ZM6381.64,654.94L6565.3,654.94L6565.3,1692.5C6456.92,1738.54 6355.91,1776.67 6267.7,1802.98L6267.7,1012.05L6381.64,1012.05L6381.64,654.94Z" style="fill:rgb(0,224,135);"/>
        </g>
        <g transform="matrix(1.00237,0,0,1.00237,-130.366,-1446.3)">
            <path d="M6565.3,2073.17L6565.3,2396.27L6264.3,2396.27L6264.3,2073.17L6565.3,2073.17ZM6264.3,2073.17L5433.6,2073.17L5433.6,1822.34L5469.15,1766.18C5704.79,1830.57 5944.97,1876.14 6170.32,1828.21C6189.18,1824.19 6208.94,1819.38 6229.5,1813.84L6267.7,1813.84L6267.7,1884.41L6264.3,1996.65L6264.3,2073.17ZM6264.3,2073.17L6264.3,1996.65L6267.7,1884.41L6267.7,1813.84L6565.3,1813.84L6565.3,2073.17L6264.3,2073.17ZM6565.3,1813.84L6788.06,1813.84L6788.06,2073.17L6565.3,2073.17L6565.3,1813.84ZM6565.3,1692.5L6565.3,1813.84L6267.7,1813.84L6267.7,1802.98C6355.91,1776.67 6456.92,1738.54 6565.3,1692.5Z" style="fill:rgb(2,202,116);"/>
        </g>
    </g>
    <g>
        <g transform="matrix(0.997637,0,0,0.997637,176.058,1442.88)">
            <path d="M3914.5,297.758C3915.05,154.508 3939.05,33.322 3986.5,-65.799C4034.51,-166.083 4099.43,-241.935 4181.25,-293.356C4263.07,-344.776 4354.26,-370.486 4454.83,-370.486C4531.53,-370.486 4594.6,-357.56 4644.03,-331.708C4693.46,-305.856 4732.67,-274.89 4761.64,-238.81C4790.62,-202.731 4813.07,-168.782 4828.97,-136.964L4841.76,-136.964L4841.76,-789.803L5151.13,-789.803L5151.13,277.302C5044.88,245.729 4940.51,213.827 4839.85,188.691C4833.98,149.491 4824.81,113.382 4812.35,80.365C4788.78,17.865 4754.12,-30.714 4708.38,-65.373C4662.64,-100.032 4606.53,-117.362 4540.05,-117.362C4471.3,-117.362 4413.92,-99.464 4367.9,-63.669C4321.87,-27.873 4287.21,21.559 4263.92,84.627C4252.57,115.35 4243.99,148.23 4238.17,183.267C4129.42,214.28 4021.37,257.442 3914.5,297.758Z" style="fill:rgb(41,175,234);"/>
        </g>
        <g transform="matrix(1,0,0,1,425,100)">
            <path d="M4890.02,1619.52L4890.02,2296.27L4587.32,2296.27L4587.32,2090.5L4568.62,2090.5C4552.75,2122.25 4529.79,2155.83 4499.75,2191.26C4469.71,2226.69 4430.03,2256.87 4380.71,2281.81C4331.4,2306.75 4269.33,2319.22 4194.51,2319.22C4091.91,2319.22 4000.08,2292.87 3919.02,2240.15C3837.97,2187.43 3773.91,2110.91 3726.87,2010.58C3679.82,1910.25 3656.29,1788.38 3656.29,1644.97C3656.29,1643.29 3656.3,1641.61 3656.3,1639.93C3762.93,1599.71 3870.72,1556.65 3979.21,1525.71C3973.1,1562.51 3970.04,1601.7 3970.04,1643.27C3970.04,1724.89 3981.8,1797.59 4005.33,1861.36C4028.85,1925.13 4063.71,1975.29 4109.91,2011.86C4156.1,2048.42 4212.93,2066.7 4280.38,2066.7C4345.57,2066.7 4401.12,2048.98 4447.03,2013.56C4492.95,1978.13 4527.81,1928.67 4551.61,1865.19C4575.42,1801.7 4587.32,1727.73 4587.32,1643.27C4587.32,1603.43 4584.71,1566.05 4579.47,1531.12C4679.89,1556.2 4784.02,1588.03 4890.02,1619.52Z" style="fill:rgb(0,150,227);"/>
        </g>
    </g>
    <g>
        <g transform="matrix(0.997637,0,0,0.997637,176.058,1442.88)">
            <path d="M3510.61,407.157L3510.61,-789.803L3819.14,-789.803L3819.14,332.695C3714.87,369.318 3611.88,398.877 3510.61,407.157Z" style="fill:rgb(41,175,234);"/>
        </g>
        <g transform="matrix(1,0,0,1,425,100)">
            <path d="M3561.17,1674.79L3561.17,2296.27L3253.37,2296.27L3253.37,1749.07C3354.41,1740.81 3457.15,1711.32 3561.17,1674.79Z" style="fill:rgb(0,150,227);"/>
        </g>
    </g>
    <g>
        <g transform="matrix(0.997637,0,0,0.997637,176.058,1442.88)">
            <path d="M3053.05,309.373L3053.05,-353.441L3361.57,-353.441L3361.57,402.337C3260.58,387.49 3156.57,351.161 3053.05,309.373Z" style="fill:rgb(41,175,234);"/>
        </g>
        <g transform="matrix(0.997637,0,0,0.997637,176.058,1442.88)">
            <path d="M3208.16,-539.236C3159.3,-539.236 3117.25,-555.571 3082.02,-588.241C3046.8,-620.912 3029.18,-660.258 3029.18,-706.281C3029.18,-752.872 3046.8,-792.502 3082.02,-825.173C3117.25,-857.843 3159.3,-874.178 3208.16,-874.178C3257.59,-874.178 3299.78,-857.843 3334.72,-825.173C3369.66,-792.502 3387.14,-752.872 3387.14,-706.281C3387.14,-660.258 3369.66,-620.912 3334.72,-588.241C3299.78,-555.571 3257.59,-539.236 3208.16,-539.236Z" style="fill:rgb(41,175,234);"/>
        </g>
        <g transform="matrix(1,0,0,1,425,100)">
            <path d="M3104.68,1744.26L3104.68,2296.27L2796.89,2296.27L2796.89,1651.52C2900.17,1693.21 3003.93,1729.45 3104.68,1744.26Z" style="fill:rgb(0,150,227);"/>
        </g>
    </g>
    <g>
        <g transform="matrix(0.997637,0,0,0.997637,176.058,1442.88)">
            <path d="M1761.11,324.059L1761.11,-353.441L2069.63,-353.441L2069.63,207.923C1946.52,248.666 1831.53,294.641 1761.11,324.059Z" style="fill:rgb(41,175,234);"/>
        </g>
        <g transform="matrix(0.997637,0,0,0.997637,176.058,1442.88)">
            <path d="M2595.48,136.969L2595.48,-353.441L2904,-353.441L2904,246.9C2797.46,201.746 2693.29,159.057 2595.48,136.969Z" style="fill:rgb(41,175,234);"/>
        </g>
        <g transform="matrix(1,0,0,1,425,100)">
            <path d="M2648.2,1589.19L2648.2,2296.27L2349.76,2296.27L2349.76,2064.15L2336.15,2064.15C2306.68,2137.27 2258.35,2197.07 2191.18,2243.55C2124.01,2290.03 2041.39,2313.27 1943.33,2313.27C1857.74,2313.27 1782.21,2294.14 1716.74,2255.88C1651.27,2217.62 1600.11,2161.78 1563.27,2088.38C1526.42,2014.97 1508,1926.12 1508,1821.82L1508,1666.17C1578.26,1636.82 1692.98,1590.95 1815.79,1550.31L1815.79,1774.21C1815.79,1856.97 1838.47,1922.72 1883.82,1971.47C1929.16,2020.22 1988.68,2044.59 2062.37,2044.59C2107.72,2044.59 2151.64,2033.54 2194.16,2011.43C2236.67,1989.32 2271.67,1956.31 2299.16,1912.38C2326.66,1868.44 2340.4,1813.32 2340.4,1747L2340.4,1479.52C2437.98,1501.56 2541.9,1544.15 2648.2,1589.19Z" style="fill:rgb(0,150,227);"/>
        </g>
    </g>
    <g transform="matrix(1,0,0,1,-19,0)">
        <g transform="matrix(1,0,0,1,-26,-13)">
            <path d="M1830.53,2096.69L1830.53,2416.11L1501.04,2416.11L1501.04,2096.69L1830.53,2096.69ZM1501.02,2672.71C1624.13,2636.7 1681.02,2545.17 1686.31,2416.22L1829.44,2416.47C1829.57,2709.07 1561.2,2789.6 1500.79,2790.21L1501.02,2672.71Z" style="fill:rgb(0,150,227);"/>
        </g>
        <g>
            <g transform="matrix(1,0,0,1,-27,0)">
                <path d="M1402.19,2083.13L1402.19,2404L1054.45,2404L1054.45,2083.13L1402.19,2083.13ZM997.424,2026.31C1005.8,2059.89 1023.71,2080.27 1054.45,2083.13L1054.45,2404C866.536,2403.73 676.594,2247.87 677.545,2027.65L997.424,2026.31ZM677.545,2027.65L677.519,1765.03C780.508,1808.27 886.965,1841.54 997.329,1863.57L997.424,2026.31L962.003,2026.48L677.545,2027.65Z" style="fill:rgb(0,150,227);"/>
            </g>
            <g transform="matrix(1.00384,0,0,0.997548,-29.6014,4.88122)">
                <path d="M1049.44,1405.32C1021.75,1410.98 999.005,1440.14 998.194,1475.73L677.537,1476.38C680.573,1252.62 840.05,1090.73 1049.53,1090.54L1049.44,1405.32ZM1827.58,1090.46L1827.58,1405.32L1049.44,1405.32L1049.44,1090.46L1827.58,1090.46ZM677.519,1765.03L677.537,1476.38L998.194,1475.73L997.473,1991.05L997.329,1863.57C886.965,1841.54 780.508,1808.27 677.519,1765.03Z" style="fill:rgb(41,175,234);"/>
            </g>
        </g>
        <g>
            <g transform="matrix(2.70826,0,0,5.02961,-2783.11,-6488.28)">
                <path d="M1693.71,1649.73L1693.88,1688.32L1571.87,1688.32L1571.87,1663.65C1612.47,1661.57 1652.9,1657.54 1693.71,1649.73Z" style="fill:rgb(0,150,227);"/>
            </g>
            <g transform="matrix(2.70826,0,0,5.02961,-2783.11,-6488.28)">
                <path d="M1571.87,1663.65L1571.87,1623.4L1625.57,1623.3L1693.88,1623.3L1693.71,1649.82C1652.9,1657.63 1612.47,1661.57 1571.87,1663.65Z" style="fill:rgb(41,175,234);"/>
            </g>
        </g>
    </g>
</svg>
