<?xml version="1.0" encoding="UTF-8" standalone="no"?>
<!DOCTYPE svg PUBLIC "-//W3C//DTD SVG 1.1//EN" "http://www.w3.org/Graphics/SVG/1.1/DTD/svg11.dtd">
<svg width="100%" height="100%" viewBox="0 0 4000 3000" version="1.1" xmlns="http://www.w3.org/2000/svg" xmlns:xlink="http://www.w3.org/1999/xlink" xml:space="preserve" xmlns:serif="http://www.serif.com/" style="fill-rule:evenodd;clip-rule:evenodd;stroke-linejoin:round;stroke-miterlimit:2;">
    <g>
        <path d="M2924.77,1080.94c-6.202,-25.636 -15.996,-49.026 -29.383,-70.17c-24.94,-39.396 -59.234,-69.863 -102.881,-91.403c-43.646,-21.54 -93.244,-32.31 -148.795,-32.31c-57.25,0 -107.415,11.762 -150.495,35.286c-43.08,23.524 -76.381,56.825 -99.905,99.905c-23.524,43.08 -35.286,94.379 -35.286,153.897l-300.141,-0c0,-110.534 25.225,-206.613 75.673,-288.237c50.449,-81.625 120.028,-144.828 208.738,-189.608c88.711,-44.78 190.6,-67.17 305.668,-67.17c116.768,0 219.366,21.823 307.793,65.47c88.426,43.646 157.156,103.448 206.187,179.404c10.382,16.083 19.665,32.65 27.849,49.699c-67.131,40.023 -158.242,93.756 -265.022,155.237Z" style="fill:rgb(242,175,13);"/>
        <path d="M3189.79,925.706c30.465,63.468 45.698,133.628 45.698,210.48c0,65.186 -12.47,129.239 -37.411,192.158c-24.941,62.919 -68.729,132.64 -131.365,209.163c-62.635,76.523 -150.354,169.201 -263.154,278.034l-300.141,305.242l0,11.904l758.429,-0l0,263.579l-1193.76,0l-0,-227.869l604.532,-592.629c57.818,-58.384 105.999,-110.25 144.544,-155.597c38.545,-45.347 67.454,-89.277 86.726,-131.789c19.273,-42.513 28.909,-87.86 28.909,-136.042c-0,-25.471 -2.677,-49.271 -8.029,-71.397c106.78,-61.481 197.891,-115.214 265.022,-155.237Z" style="fill:rgb(230,97,26);"/>
    </g>
    <g>
        <path d="M1444.1,1012.05l-13.604,0l-497.4,788.188l-0,13.604l472.801,0c-20.565,5.545 -40.32,10.353 -59.186,14.367c-225.346,47.937 -465.526,2.36 -701.165,-62.03l703.325,-1111.24l392.819,0l-0,1037.56c-108.376,46.045 -209.386,84.172 -297.59,110.479l0,-790.929Z" style="fill:rgb(242,175,13);"/>
        <path d="M1440.7,2073.17l-830.701,-0l-0,-250.826l35.548,-56.166c235.639,64.39 475.819,109.967 701.165,62.03c18.866,-4.014 38.621,-8.822 59.186,-14.367l38.203,0l0,-10.863c88.204,-26.307 189.214,-64.434 297.59,-110.479l-0,121.342l222.767,0l0,259.329l-222.767,-0l-0,323.097l-300.991,0l-0,-323.097Z" style="fill:rgb(230,97,26);"/>
    </g>
</svg>
